<svg width="146" height="43" viewBox="0 0 146 43" fill="none" xmlns="http://www.w3.org/2000/svg">
<path d="M58.208 16.616C55.592 16.616 53.96 14.24 54.512 11.624C55.064 9.008 57.704 6.656 60.32 6.656C61.688 6.656 62.744 7.472 63.416 8.408L66.848 5.576C65.6 3.92 63.584 2.888 61.112 2.888C56.288 2.888 51.536 6.8 50.528 11.624C49.496 16.448 52.592 20.36 57.392 20.36C59.888 20.36 62.336 19.328 64.28 17.672L62.048 14.84C60.992 15.776 59.576 16.616 58.208 16.616ZM77.7489 3.392L76.3809 9.824H71.1729L72.5409 3.392H68.7729L65.2929 19.832H69.0369L70.4289 13.376H75.6369L74.2449 19.832H78.0129L81.5169 3.392H77.7489ZM83.9604 3.392L80.4804 19.856H84.2244L87.7284 3.392H83.9604ZM95.4033 16.616C92.7873 16.616 91.1553 14.24 91.7073 11.624C92.2593 9.008 94.8993 6.656 97.5153 6.656C98.8833 6.656 99.9393 7.472 100.611 8.408L104.043 5.576C102.795 3.92 100.779 2.888 98.3073 2.888C93.4833 2.888 88.7313 6.8 87.7233 11.624C86.6913 16.448 89.7873 20.36 94.5873 20.36C97.0833 20.36 99.5313 19.328 101.475 17.672L99.2433 14.84C98.1873 15.776 96.7713 16.616 95.4033 16.616ZM117.872 5.552L115.76 2.888L108.584 8.816L109.736 3.392H105.968L102.488 19.856H106.232L107.408 14.384L112.112 20.36L115.352 17.672L110.576 11.576L117.872 5.552ZM128.411 7.16L129.227 3.392H119.843L116.363 19.856H125.723L126.515 16.088H120.923L121.475 13.448H126.059L126.827 9.8H122.267L122.819 7.16H128.411ZM140.257 3.368L138.337 12.368L135.049 3.392H131.281L127.801 19.856H131.545L133.465 10.904L136.729 19.856H140.497L144.001 3.368H140.257Z" fill="#FF3131"/>
<path d="M58.232 23.392C56.912 23.392 52.976 23.392 52.976 23.392L49.496 39.856C49.496 39.856 53.408 39.856 54.728 39.856C59.264 39.856 63.752 36.16 64.712 31.624C65.696 27.088 62.768 23.392 58.232 23.392ZM60.944 31.624C60.44 34.096 57.992 36.088 55.52 36.088C55.16 36.088 54.056 36.088 54.056 36.088L55.952 27.16C55.952 27.16 57.056 27.16 57.44 27.16C59.888 27.16 61.472 29.152 60.944 31.624ZM76.7315 27.16L77.5475 23.392H68.1635L64.6835 39.856H74.0435L74.8355 36.088H69.2435L69.7955 33.448H74.3795L75.1475 29.8H70.5875L71.1395 27.16H76.7315ZM88.577 23.368L86.657 32.368L83.369 23.392H79.601L76.121 39.856H79.865L81.785 30.904L85.049 39.856H88.817L92.321 23.368H88.577ZM103.333 27.16L104.149 23.392H94.7651L91.2851 39.856H100.645L101.437 36.088H95.8451L96.3971 33.448H100.981L101.749 29.8H97.1891L97.7411 27.16H103.333ZM116.307 29.56C117.027 26.152 114.867 23.392 111.435 23.392C110.139 23.392 106.203 23.392 106.203 23.392L102.723 39.856H106.467L107.355 35.752C107.355 35.752 108.459 35.752 108.819 35.752C109.083 35.752 109.347 35.728 109.611 35.704L111.123 39.856L114.795 37.984L113.379 34.096C114.819 32.968 115.923 31.36 116.307 29.56ZM112.779 29.56C112.491 30.904 110.955 31.984 109.611 31.984C109.251 31.984 108.147 31.984 108.147 31.984L109.179 27.16C109.179 27.16 110.283 27.16 110.643 27.16C111.987 27.16 113.067 28.24 112.779 29.56Z" fill="black"/>
<g clip-path="url(#clip0_733_21870)">
<path fill-rule="evenodd" clip-rule="evenodd" d="M2.04912 12.9482C2.60312 14.0684 3.53725 14.0123 4.37307 14.2411C5.65436 14.59 6.82536 15.1973 7.76125 16.1616C8.10355 16.5143 8.26547 16.4814 8.52352 16.0528C9.44518 14.5199 10.5349 13.1131 11.8383 11.8721C11.9601 11.7552 12.1554 11.6743 12.1675 11.3874C11.3545 11.7442 10.6035 12.146 9.76991 12.3486C9.18052 12.4926 8.59044 12.5555 7.99017 12.5316C7.12473 12.4966 6.44389 12.1198 6.15036 11.2986C5.86144 10.4873 6.123 9.75385 6.72838 9.15648C7.45926 8.43706 8.4103 8.0913 9.3564 7.73763C8.46452 6.53239 8.5477 5.83919 9.75117 4.89972C10.8101 4.07264 12.075 3.82274 13.3883 3.77676C14.0787 3.75278 14.7706 3.76684 15.4741 3.7618C14.9765 1.5726 16.1729 0.102723 18.3948 -0.0161881C19.8227 -0.0930919 21.0355 0.410421 22.148 1.17491C24.5825 2.8496 26.5513 4.95976 27.9803 7.53761C28.1933 7.92337 28.4338 8.26911 28.8286 8.47088C31.1467 9.65999 32.6881 11.6114 34.0964 13.6925C35.1613 15.2674 36.1345 16.896 36.9786 18.5946C37.374 19.392 37.8425 20.1354 38.4972 20.7308C40.8386 22.8601 41.285 25.5729 40.8659 28.4856C40.139 33.5344 37.0276 36.8807 32.6382 39.1737C27.9701 41.6129 22.9602 42.1653 17.7782 41.4878C17.3165 41.428 17.0093 41.4629 16.6651 41.8476C15.6796 42.9466 14.3998 43.0765 13.0369 42.7048C12.294 42.5011 11.6137 42.1573 10.9838 41.7118C9.75897 40.8464 8.56527 39.948 7.15144 39.3617C5.97909 38.8761 5.58784 37.869 6.03022 36.7358C6.16192 36.3991 6.02092 36.2782 5.83449 36.0914C3.72718 33.979 2.31285 31.5061 1.86294 28.5444C1.68497 27.3733 1.53202 26.1934 1.8934 25.0254C1.99038 24.7115 1.78797 24.5367 1.64255 24.3319C0.833592 23.1889 0.276499 21.9519 0.138605 20.548C0.0463132 19.6057 0.101858 18.6786 0.664143 17.8881C1.5028 16.7083 1.5346 15.3114 1.83516 13.9864C1.89273 13.7325 1.94051 13.4758 2.04912 12.9482Z" fill="#0E1012"/>
<path fill-rule="evenodd" clip-rule="evenodd" d="M14.775 10.5892C16.4698 9.37525 18.4119 8.81269 20.4501 8.56081C22.3615 8.32414 24.2762 8.46298 26.1847 8.67492C28.5345 8.93449 30.2306 10.2696 31.7125 11.9542C33.7222 14.2404 35.2533 16.8382 36.7024 19.486C37.08 20.1755 37.461 20.8749 38.025 21.4225C40.3468 23.6765 40.635 26.4403 40.0565 29.3879C39.5728 31.8519 38.3288 33.9282 36.4595 35.6327C36.1834 35.6547 36.0184 35.4648 35.871 35.2929C35.1717 34.4717 34.4239 33.7024 33.595 33.009C34.0477 32.4375 34.0303 31.8288 33.712 31.2145C33.3555 30.523 33.3793 29.8994 33.968 29.3358C34.0872 29.2239 34.1648 29.0681 34.2532 28.9272C34.6915 28.2258 34.6646 28.037 33.9911 27.3474C33.72 27.6693 33.5663 28.075 33.2411 28.3436C32.7044 28.7863 32.273 28.7513 31.8233 28.2088C31.334 27.6213 31.3122 27.2426 31.951 26.865C32.7219 26.4082 32.9217 25.8708 32.8449 24.9924C32.7278 23.6585 33.0992 22.3067 32.7803 20.9609C32.6382 20.3623 32.5895 19.7387 32.261 19.1963C32.0182 18.7965 31.7152 18.4937 31.1816 18.4918C30.6327 18.4901 30.3561 18.8125 30.1501 19.2371C29.4181 20.7399 29.2947 22.3296 29.5224 23.9543C29.6012 24.5148 29.7211 25.0714 29.8347 25.631C29.9851 26.3662 29.8532 26.6711 29.3281 26.7261C28.6562 26.7979 28.7218 26.2465 28.6597 25.8578C28.4689 24.6637 28.2759 23.4727 28.0198 22.2896C27.8139 21.3393 27.3786 20.5131 26.6636 19.8306C25.2577 18.4867 23.2184 18.8505 22.3775 20.6061C21.4156 22.6153 21.4004 24.6236 22.3716 26.6362C22.7095 27.3364 22.6866 27.3934 22.1955 27.6352C22.9632 27.4655 23.7868 27.5374 24.6008 27.7521C25.1015 27.8851 25.5141 28.1728 25.8435 28.5636C26.4322 29.263 26.1457 30.1701 25.2581 30.4009C24.7392 30.5348 24.2123 30.5069 23.6901 30.3899C22.8629 30.2071 22.1078 29.8525 21.3648 29.4597C20.4175 28.9582 19.1019 29.7336 19.1302 30.7588C19.1424 31.1973 19.3195 31.5301 19.7038 31.76C19.9235 31.8928 20.1959 31.9737 20.2765 32.2636C19.7994 32.8799 19.1357 33.0549 18.3922 33.0448C18.1371 31.4763 17.2134 30.4111 15.7375 29.8994C15.0636 29.6657 14.6186 29.322 14.3779 28.7043C14.0074 27.7552 13.371 27.3426 12.3257 27.5334C11.9093 27.6092 11.4777 27.5301 11.0513 27.4195C10.5304 27.2855 10.0171 27.3426 9.55938 27.6952C9.16193 28.0029 8.71551 28.2078 8.20017 28.2909C7.58634 28.3867 7.21935 28.8722 6.89395 29.3248C6.35601 30.0743 6.04525 30.9366 5.83557 31.8299C5.35135 31.848 5.35578 31.4442 5.26483 31.1514C4.98863 30.2612 5.12384 29.3639 5.28483 28.4766C5.6396 26.5252 6.3642 24.6918 7.21022 22.9061C9.17061 18.7725 11.5902 14.9037 14.2749 11.1947C14.4293 10.98 14.6277 10.807 14.7749 10.5892H14.775Z" fill="#FCBE00"/>
<path fill-rule="evenodd" clip-rule="evenodd" d="M33.7572 33.0148C34.3831 33.3087 34.8001 33.8343 35.2496 34.3237C35.6508 34.7633 36.056 35.197 36.4595 35.6327C33.9022 38.1127 30.7516 39.4555 27.3204 40.2248C24.2311 40.9202 21.1098 40.9763 17.9731 40.5705C17.5623 40.5187 17.4262 40.4248 17.4918 39.9532C17.6168 39.0559 17.4466 38.1686 17.1326 37.3102C17.0681 37.1335 16.8704 36.9585 17.1117 36.7438C18.232 35.7485 18.3814 34.4187 18.3923 33.0447C19.0218 32.795 19.6512 32.5453 20.2808 32.2973C20.5048 32.1196 20.7381 32.2154 20.9637 32.2835C22.9578 32.875 24.9583 33.4335 26.7341 34.5835C27.6774 35.1951 28.8517 35.0421 29.7458 34.3147C30.2807 33.8802 30.8274 33.4525 31.294 32.9409C31.6387 32.5631 32.0338 32.4413 32.5144 32.6791C32.9056 32.8708 33.3557 32.8559 33.7572 33.0148Z" fill="white"/>
<path fill-rule="evenodd" clip-rule="evenodd" d="M14.775 10.5889C14.4714 11.5611 13.7181 12.2585 13.1706 13.0768C10.2499 17.4373 7.47234 21.8668 5.86305 26.8996C5.44753 28.1985 5.13776 29.5274 5.39974 30.9112C5.46425 31.2519 5.47044 31.6267 5.83568 31.8296C5.58365 33.0255 6.50666 33.785 6.92503 34.7312C7.04979 35.0158 7.56019 35.2886 7.18658 35.6144C6.71065 36.0281 6.47971 35.4445 6.23555 35.1998C3.78903 32.7508 2.48883 29.8193 2.48322 26.351C2.48155 25.2959 2.89095 24.4694 3.87997 24.0819C5.56339 23.4203 6.49468 22.1994 7.16524 20.5689C8.43406 17.4843 10.134 14.6337 12.5827 12.2855C13.2511 11.6442 13.9439 11.0276 14.775 10.5889Z" fill="#FAAF00"/>
<path fill-rule="evenodd" clip-rule="evenodd" d="M27.2209 7.971C23.5877 7.95719 20.4227 6.81315 17.6545 4.59989C17.6175 4.57177 17.5783 4.54184 17.5412 4.5129C16.4135 3.59758 16.0906 2.7274 16.5479 1.83804C16.9969 0.962829 18.5088 0.452197 19.6627 0.822989C21.1033 1.28656 22.2723 2.19171 23.4055 3.14697C25.0082 4.49593 26.3009 6.08272 27.2209 7.971Z" fill="#DB2A1B"/>
<path fill-rule="evenodd" clip-rule="evenodd" d="M14.6569 38.4613C13.9387 39.1018 13.0141 39.1937 12.1299 39.3097C10.46 39.5276 8.8437 39.1937 7.2744 38.6392C6.48838 38.3624 6.22705 37.838 6.4759 37.1554C6.77176 36.3461 7.24435 36.1563 8.0877 36.3701C10.4506 36.9695 12.4497 36.2202 14.239 34.6965C15.0265 34.0259 15.4934 33.2267 15.5201 32.1914C15.6046 32.0595 15.4671 31.8119 15.6862 31.7709C15.9589 31.72 16.1339 31.9296 16.2552 32.1275C17.1263 33.5483 17.3385 34.7704 16.2282 36.1193C15.6197 36.8596 15.0733 37.6092 14.6569 38.4613Z" fill="#FCBE00"/>
<path fill-rule="evenodd" clip-rule="evenodd" d="M22.2127 7.61156C19.6145 7.69839 17.0981 8.39886 14.5069 8.145C13.485 8.0432 12.4542 8.0342 11.4476 7.80341C11.3545 7.7834 11.2601 7.75726 11.1737 7.71947C10.5884 7.4537 9.88533 7.24687 9.87177 6.47031C9.8593 5.73195 10.4656 5.3634 11.051 5.08754C12.7073 4.31007 14.4755 4.59999 16.212 4.64001C16.3782 4.6458 16.545 4.81582 16.7027 4.9196C18.3563 6.01775 20.0511 7.02989 22.0272 7.47345C22.0864 7.48668 22.1338 7.55153 22.2127 7.61156Z" fill="#DB2A1B"/>
<path fill-rule="evenodd" clip-rule="evenodd" d="M2.45766 14.4639C4.19974 15.9785 5.46264 17.776 6.00577 20.0132C6.23177 20.9425 5.44799 22.3493 4.59235 22.7249C4.28811 22.8579 4.21691 22.6181 4.08144 22.4893C2.04508 20.5289 1.60939 18.1407 2.19611 15.4949C2.27016 15.1601 2.17468 14.7795 2.45766 14.4639Z" fill="#FCBE00"/>
<path fill-rule="evenodd" clip-rule="evenodd" d="M16.529 8.40879C14.453 9.13011 12.5778 10.1874 10.6902 11.2106C9.83301 11.6781 8.94716 11.8449 7.99144 11.6133C6.92075 11.3524 6.58941 10.3173 7.39652 9.5779C8.3863 8.67474 9.49119 8.08721 10.9582 8.27095C12.6917 8.48768 14.4472 8.51869 16.1978 8.38481C16.307 8.37489 16.4186 8.39886 16.529 8.40879Z" fill="#DB2A1B"/>
<path fill-rule="evenodd" clip-rule="evenodd" d="M10.5656 32.3672C11.4697 31.5818 12.1039 30.5209 13.191 29.9192C13.533 29.7294 13.5806 29.2849 13.7871 28.9521C14.795 30.3101 15.3168 31.7218 14.4525 33.3405C14.3707 33.4124 14.2759 33.4524 14.166 33.4535C13.0237 33.2726 12.9686 32.3453 12.8396 31.554C12.8169 31.53 12.8581 31.57 12.8514 31.6139C12.7996 31.9555 13.205 32.3833 12.8681 32.6011C12.4701 32.8578 12.1523 32.3934 11.8143 32.2063C11.7687 32.2195 11.7731 32.2494 11.8027 32.3075C11.9956 32.685 12.2764 33.0917 11.7738 33.4225C11.4795 33.6164 10.8366 33.2247 10.6315 32.78C10.5707 32.649 10.5476 32.5112 10.5656 32.3672Z" fill="#FFE8CA"/>
<path fill-rule="evenodd" clip-rule="evenodd" d="M16.1264 37.1631C16.8381 38.2922 16.4017 39.779 15.2325 40.4466C14.0631 41.1119 12.8349 41.013 11.6163 40.6802C10.8981 40.4854 10.1844 40.2206 9.51343 39.6731C12.0985 39.635 14.7463 40.0208 16.1264 37.1631Z" fill="#FCBE00"/>
<path fill-rule="evenodd" clip-rule="evenodd" d="M8.59754 35.7136C8.38334 35.6687 8.19714 35.5966 8.07992 35.385C7.6823 34.6656 7.27197 33.954 6.81177 33.1437C7.9427 33.0648 9.0261 33.2147 10.0194 32.7632C10.4542 32.8999 10.7734 33.1608 10.9161 33.6005C10.9668 33.7562 11.0182 33.9282 10.8796 34.0659C10.7365 34.2079 10.57 34.142 10.4144 34.08C10.1933 33.9921 9.9856 33.8782 9.76922 33.7802C10.1144 33.9442 10.458 34.1099 10.8079 34.2649C11.2433 34.4587 11.2732 34.8854 11.282 35.2909C11.2854 35.4448 11.1788 35.5228 11.01 35.5569C10.2118 35.7116 9.408 35.7556 8.59754 35.7136Z" fill="#FFE8CA"/>
<path fill-rule="evenodd" clip-rule="evenodd" d="M1.27622 18.2085C1.52599 20.1399 2.24701 21.6498 3.53726 22.8708C3.81129 23.1286 3.77547 23.2895 3.43851 23.4222C3.37291 23.4485 3.31352 23.4904 3.25277 23.5283C2.20945 24.1679 2.20702 24.1687 1.61829 23.0286C1.01107 21.8526 0.622313 20.6328 0.85275 19.2858C0.908811 18.96 0.987049 18.6503 1.27622 18.2085Z" fill="#FCBE00"/>
<path fill-rule="evenodd" clip-rule="evenodd" d="M6.67212 19.519C6.28354 17.5755 4.99332 16.2328 3.72943 14.8458C4.35548 14.8416 4.92822 15.0456 5.82671 15.5892C6.1112 15.761 6.39475 15.9389 6.66275 16.1347C7.89116 17.0311 7.88799 17.0331 7.22187 18.3769C7.03444 18.7556 6.85512 19.1383 6.67212 19.519Z" fill="#FCBE00"/>
<path fill-rule="evenodd" clip-rule="evenodd" d="M8.59753 35.7137C9.00385 35.7039 9.41334 35.7187 9.81523 35.6709C9.97931 35.6528 10.4188 35.9386 10.2694 35.346C10.222 35.1572 10.5263 35.346 10.669 35.355C10.8231 35.3671 10.9708 35.581 11.1221 35.417C11.2533 35.2733 11.0927 35.1062 11.0834 34.9495C11.0594 34.5516 10.7971 34.402 10.4686 34.262C10.0076 34.0661 9.56722 33.8224 9.1184 33.5986C9.15597 33.5256 9.19378 33.4537 9.2316 33.3807C9.73489 33.6084 10.238 33.8364 10.756 34.072C10.9704 33.3446 10.3059 33.1618 10.0192 32.7633C10.2013 32.6312 10.3833 32.4984 10.5656 32.3675C10.8483 32.6233 10.8274 33.1449 11.3278 33.2159C11.5018 33.2407 11.6819 33.4765 11.8363 33.2768C11.9154 33.1728 11.8772 32.959 11.8476 32.8031C11.8082 32.5973 11.7442 32.3914 11.5327 32.2716C11.4112 32.2026 11.2509 32.0937 11.4591 31.969C11.5858 31.8929 11.7728 31.6531 11.9168 31.969C12.0949 32.3595 12.4694 32.4554 12.8825 32.6123C12.7802 32.0518 12.6859 31.5352 12.5555 30.8218C12.9762 31.2425 12.9915 31.6001 13.0301 31.9228C13.1169 32.6472 13.445 33.1548 14.1861 33.3506C14.3426 33.5346 14.2348 33.7105 14.0632 33.6865C13.4561 33.6045 13.7125 33.9612 13.7557 34.2179C13.6204 34.3098 13.4852 34.4 13.35 34.4918C12.9695 34.4169 12.5789 34.3239 12.6241 34.9334C12.4848 35.0193 12.3456 35.1061 12.2064 35.1912C11.9817 35.1301 11.7571 35.0673 11.5322 34.9035C11.5381 35.1093 11.651 35.3091 11.4866 35.47C10.5511 35.8706 9.58346 35.8977 8.59753 35.7137Z" fill="#D17316"/>
<path fill-rule="evenodd" clip-rule="evenodd" d="M14.6569 38.4615C14.7321 37.6192 15.1856 36.9978 15.7709 36.4061C17.185 34.9794 16.9575 33.6704 16.1413 32.2507C16.0147 32.0298 15.7861 31.5742 15.5201 32.1916C15.4418 31.5851 15.6117 30.9596 15.2522 30.1914C16.5022 30.9795 17.1557 31.9259 17.3516 33.1708C17.5186 34.23 17.3074 35.1972 16.5303 35.9975C16.0474 36.4951 15.6782 37.0677 15.368 37.6851C15.2125 37.9968 15.0003 38.2986 14.6569 38.4615Z" fill="#FAAF00"/>
<path fill-rule="evenodd" clip-rule="evenodd" d="M12.008 41.2292C12.3278 41.2276 12.6481 41.2142 12.9677 41.2251C14.3734 41.2761 15.6418 41.0321 16.4273 39.7054C16.4949 39.5904 16.5665 39.4264 16.7496 39.5076C16.9055 39.5774 16.8772 39.7422 16.8848 39.8792C16.9351 40.7843 16.365 41.6737 15.4774 41.9854C14.1974 42.4311 13.0845 41.9495 11.9918 41.4139C11.9968 41.3519 12.0026 41.2899 12.008 41.229V41.2292Z" fill="#FBBC00"/>
<path fill-rule="evenodd" clip-rule="evenodd" d="M11.5165 28.003C11.965 27.959 12.4134 27.9162 12.8624 27.8751C13.2688 27.8381 13.3691 28.0319 13.2579 28.3888C13.1037 28.8824 12.9063 29.2879 12.439 29.6438C11.6779 30.2212 11.0113 30.9376 10.3794 31.659C9.8285 32.2876 9.15378 32.5212 8.36532 32.5412C7.81793 32.5553 7.26902 32.5164 6.72188 32.533C6.33782 32.5429 6.35289 32.3512 6.4343 32.0914C6.68474 31.8026 7.01992 31.7716 7.37152 31.7916C7.65375 31.8175 7.92267 31.9114 8.20138 31.9554C8.86525 31.9396 9.48937 31.8336 9.90172 31.2382C10.0809 30.9564 10.3468 30.7684 10.6123 30.5805C10.792 30.4486 10.9332 30.2809 11.0501 30.0921C11.3418 29.6993 11.6906 29.3676 12.0858 29.0737C12.2564 28.9489 12.5513 28.7961 12.1387 28.5913C11.9437 28.4842 11.7297 28.4103 11.5503 28.2754C11.4891 28.1886 11.4757 28.0987 11.5165 28.0027V28.003Z" fill="#FAF9F7"/>
<path fill-rule="evenodd" clip-rule="evenodd" d="M11.5165 28.003C11.5356 28.0621 11.5547 28.123 11.574 28.1831C11.2835 28.4826 10.8392 28.6595 10.7805 29.1461C10.1719 29.7496 9.90108 29.7907 9.00034 29.4179C8.88018 29.1721 9.04343 28.9083 8.94562 28.6615C8.99716 28.4237 9.1749 28.3899 9.38132 28.3919C9.5726 28.3943 9.81968 28.4327 9.92218 28.2718C10.3631 27.5794 10.958 27.9232 11.5165 28.003Z" fill="#A7C70C"/>
<path fill-rule="evenodd" clip-rule="evenodd" d="M6.67017 31.4262C6.9032 30.6757 7.10427 29.9084 7.81248 29.4229C7.88076 29.4417 7.94392 29.4699 8.00241 29.5077C8.3925 29.8495 8.17009 30.1992 7.99304 30.523C7.8267 30.8267 7.69943 31.1724 7.36339 31.3582C7.13187 31.3703 6.9375 31.76 6.67017 31.4262Z" fill="#F9F9F7"/>
<path fill-rule="evenodd" clip-rule="evenodd" d="M7.83849 29.5666C7.82979 29.5185 7.82132 29.4705 7.81262 29.4227C7.91897 28.7751 8.34445 28.5903 8.94564 28.6612C9.25766 28.8362 9.33924 29.0299 8.99768 29.2607C8.71788 29.7574 8.28999 29.7053 7.83849 29.5666Z" fill="#DD2B1C"/>
<path fill-rule="evenodd" clip-rule="evenodd" d="M6.67012 31.4262C6.88366 31.4563 7.03375 31.2146 7.25884 31.2924C7.46074 31.3044 7.66249 31.3183 7.74993 31.5462C7.78281 31.8018 7.52819 31.8438 7.41447 31.9898C7.08756 32.0239 6.76064 32.0588 6.4339 32.0926C6.48193 31.8599 6.47709 31.6091 6.67012 31.4262Z" fill="#00924E"/>
<path fill-rule="evenodd" clip-rule="evenodd" d="M13.7557 34.2175C13.3378 34.0597 13.4901 33.6889 13.4028 33.4683C13.6699 33.1064 13.9727 33.9518 14.1861 33.3502C14.2751 33.346 14.3638 33.3419 14.4525 33.3403C14.3413 33.7261 14.09 34.0037 13.7557 34.2175Z" fill="#F9DBB8"/>
<path fill-rule="evenodd" clip-rule="evenodd" d="M12.6241 34.9333C12.4339 34.6934 12.34 34.2927 12.5244 34.173C12.8084 33.9881 13.1186 34.2558 13.35 34.4917C13.1494 34.7064 12.9009 34.8434 12.6241 34.9333Z" fill="#FFE3C1"/>
<path fill-rule="evenodd" clip-rule="evenodd" d="M11.4866 35.4696C11.4341 35.2479 11.3817 35.025 11.3087 34.7192C11.6955 34.7981 11.9935 34.9032 12.2061 35.1929C11.9766 35.3107 11.7637 35.4715 11.4866 35.4696Z" fill="#FADBB9"/>
<path fill-rule="evenodd" clip-rule="evenodd" d="M33.7571 33.0149C33.3177 33.1398 32.8913 33.0499 32.5067 32.8571C32.0045 32.6053 31.6816 32.7673 31.322 33.1409C30.8286 33.6524 30.2931 34.132 29.7278 34.5637C28.7863 35.2831 27.6973 35.422 26.714 34.7795C24.7377 33.4925 22.492 32.9521 20.2806 32.2975C20.2023 32.2476 20.1275 32.1916 20.0448 32.1515C19.0446 31.668 18.7248 31.1644 18.9107 30.3591C19.0493 29.7586 20.0588 29.0422 20.7823 29.0172C21.0715 29.0082 21.2751 29.1701 21.4987 29.3071C22.5407 29.9374 23.6488 30.3391 24.8956 30.2731C25.3557 30.2492 25.7467 30.1412 25.9152 29.6498C26.0882 29.1481 25.876 28.7793 25.5128 28.4567C24.905 27.9162 24.1532 27.7793 23.3785 27.7463C22.8098 27.7212 22.2386 27.7471 21.6375 27.7512C21.694 27.6794 21.7168 27.6213 21.7454 27.6173C22.4964 27.5495 22.5029 27.2496 22.1835 26.6342C21.1281 24.5918 21.2274 22.5164 22.2186 20.4812C23.147 18.5727 25.4463 18.2461 26.936 19.7846C28.0256 20.9107 28.2756 22.3695 28.5302 23.8204C28.6693 24.6118 28.7715 25.4132 28.9148 26.2045C28.9471 26.3834 28.8694 26.7339 29.3031 26.5861C29.5852 26.4902 29.836 26.4863 29.7357 26.0447C29.4582 24.8206 29.199 23.5925 29.2382 22.3216C29.2722 21.2145 29.5062 20.1614 29.9659 19.1571C30.2223 18.5966 30.6209 18.2449 31.3006 18.272C31.9556 18.2999 32.2937 18.6967 32.5125 19.2262C33.0979 20.641 33.1695 22.1199 33.0603 23.6246C33.0143 24.2621 33.0356 24.9035 32.9731 25.54C32.9418 25.8578 33.0639 26.0047 33.4013 26.0765C32.8644 26.4342 32.4046 26.7641 31.9233 27.0567C31.436 27.3536 31.5773 27.6673 31.8698 27.9809C32.1649 28.2987 32.4151 28.7725 32.9796 28.3627C33.4907 27.991 33.6851 27.4215 33.9461 26.8608C34.0449 27.0488 34.0997 27.2375 34.22 27.3665C34.9586 28.1587 35.056 28.3019 34.3834 29.0501C33.673 29.8416 33.5147 30.5469 34.0118 31.496C34.2623 31.9756 34.3976 32.6012 33.7571 33.0148V33.0149Z" fill="#0E1012"/>
<path fill-rule="evenodd" clip-rule="evenodd" d="M24.9724 17.3414C23.9481 17.3573 23.0672 17.1316 22.2327 17.4892C21.3842 17.853 20.8916 18.5884 20.3142 19.2498C20.6129 18.2807 20.9648 17.3364 22.0201 16.9196C23.0054 16.5301 23.9515 16.6429 24.9724 17.3414Z" fill="#111315"/>
<path fill-rule="evenodd" clip-rule="evenodd" d="M32.8072 16.9502C31.632 16.2747 30.5317 16.3776 29.3821 17.3298C29.849 16.4026 30.5609 15.967 31.3627 16.0488C31.9713 16.1107 32.5375 16.2896 32.8072 16.9502Z" fill="#121415"/>
<path fill-rule="evenodd" clip-rule="evenodd" d="M23.7584 4.67307C23.5509 4.48403 23.3501 4.28814 23.1355 4.10746C22.3039 3.41094 21.3755 3.01327 20.2508 3.13333C19.5865 3.20519 18.9228 3.10714 18.2608 3.01725C17.8743 2.9654 17.6003 2.8115 17.6223 2.4097C17.6443 2.01121 17.944 1.87824 18.3253 1.86923C20.6573 1.80837 22.5211 2.66554 23.7584 4.67307Z" fill="#CA291F"/>
<path fill-rule="evenodd" clip-rule="evenodd" d="M15.7739 5.61833C14.5023 5.55746 13.4478 6.06808 12.4453 6.74046C12.3487 6.80636 12.2268 6.86639 12.1159 6.86838C11.7976 6.87251 11.3955 7.04229 11.2088 6.6624C11.0032 6.24481 11.3381 5.96696 11.6461 5.80918C12.9781 5.12581 14.3663 5.19965 15.7739 5.61833Z" fill="#C92920"/>
<path fill-rule="evenodd" clip-rule="evenodd" d="M10.8686 8.94936C10.0203 9.34198 9.43738 9.95654 8.84372 10.559C8.6342 10.7718 8.39315 10.8247 8.1356 10.6489C7.94408 10.517 7.85337 10.3691 7.96541 10.1093C8.26346 9.41997 10.0119 8.65861 10.8686 8.94936Z" fill="#CA291F"/>
<path fill-rule="evenodd" clip-rule="evenodd" d="M11.0381 33.4282C12.1297 33.7799 12.1432 33.7949 12.145 34.6872C11.4807 34.5433 11.0147 34.2575 11.0381 33.4282Z" fill="#FFE7C6"/>
<path fill-rule="evenodd" clip-rule="evenodd" d="M12.1766 32.647C13.0725 33.0866 13.0725 33.0866 13.1605 33.89C12.302 33.7621 12.1996 33.6363 12.1766 32.647Z" fill="#FFE8C9"/>
<path fill-rule="evenodd" clip-rule="evenodd" d="M7.73588 31.5552C7.5769 31.4673 7.41742 31.3782 7.25861 31.2923C7.61874 30.9795 7.76954 30.5368 7.99838 30.1411C8.14849 29.8825 8.01436 29.7235 7.83848 29.5668C8.27902 29.6657 8.61462 29.3749 8.99767 29.2609C9.59812 29.5398 10.1793 29.6376 10.6913 29.0842C10.8005 29.0123 10.9126 29.0081 11.0276 29.0712C11.3025 29.4299 11.1493 29.8255 11.1259 30.2091C11.061 30.4269 10.9084 30.5669 10.7131 30.6698C10.2975 30.7588 9.94094 30.3821 9.51897 30.523C8.96363 30.6678 8.48259 30.9226 8.13694 31.3943C8.03929 31.5261 7.93318 31.656 7.73588 31.5552Z" fill="#FFE1BD"/>
<path fill-rule="evenodd" clip-rule="evenodd" d="M10.0152 31.2953C10.1577 31.6349 9.88021 31.7118 9.66894 31.7879C9.21074 31.9536 8.77264 32.2415 8.24416 32.0736C8.0589 31.2183 8.45876 30.8266 9.51363 30.8326C9.74968 30.9135 9.97116 31.0115 10.0152 31.2953Z" fill="#DD2B1C"/>
<path fill-rule="evenodd" clip-rule="evenodd" d="M11.1259 30.2088C10.8521 29.8692 11.0469 29.4745 10.9935 29.1098C11.2562 28.6482 11.8167 28.766 12.1857 28.5112C12.2991 28.4453 12.4535 28.2906 12.5291 28.4823C12.608 28.6832 12.6776 28.9419 12.3843 29.0937C11.8705 29.3598 11.5362 29.8272 11.1259 30.2088Z" fill="#A9CA0A"/>
<path fill-rule="evenodd" clip-rule="evenodd" d="M9.50672 30.9665C8.55837 31.0384 8.38107 31.1954 8.24434 32.0736C7.96764 32.0458 7.69119 32.0176 7.41473 31.9897C7.52125 31.8448 7.62827 31.7 7.73545 31.5551C8.25323 31.0355 8.67133 30.3671 9.54296 30.3821C9.73022 30.5889 9.76009 30.7867 9.50672 30.9665Z" fill="#A9C80C"/>
<path fill-rule="evenodd" clip-rule="evenodd" d="M12.1858 28.5111C12.0085 29.1396 11.3132 28.7591 10.9936 29.1097C10.8931 29.0998 10.7923 29.0928 10.6916 29.0838C10.6227 28.4362 11.0367 28.2505 11.5741 28.1826C11.8083 28.2364 12.0318 28.3103 12.1858 28.5111Z" fill="#DD2B1C"/>
<path fill-rule="evenodd" clip-rule="evenodd" d="M9.50671 30.9663C9.51876 30.7716 9.53098 30.5766 9.54295 30.3819C10.0185 30.139 10.323 30.5737 10.713 30.6696C10.4804 30.8784 10.2476 31.0863 10.0151 31.2951C9.84568 31.1861 9.67615 31.0762 9.50671 30.9663Z" fill="#00904D"/>
<path fill-rule="evenodd" clip-rule="evenodd" d="M28.2634 26.68C28.2825 27.8249 27.7229 28.6322 26.7677 28.9141C26.6216 28.9561 26.504 29.0871 26.3814 28.8222C25.8794 27.7421 24.8616 27.5032 23.8134 27.4732C23.1284 27.4544 22.8402 27.2095 22.577 26.5879C21.8618 24.8974 21.4663 23.2179 22.2058 21.4462C22.6582 20.3622 23.2516 19.3359 24.5959 19.29C25.913 19.246 26.5535 20.2253 27.0735 21.2473C27.9539 22.9769 28.0851 24.8703 28.2634 26.68Z" fill="white"/>
<path fill-rule="evenodd" clip-rule="evenodd" d="M22.8239 30.5847C23.647 30.7065 24.459 30.9463 25.3077 30.7764C25.6229 30.7155 25.9406 30.6327 26.1184 30.3689C26.908 29.1998 28.3871 28.6982 29.0416 27.3793C29.2247 27.0096 29.6763 27.0195 30.06 27.2474C30.5146 27.5172 30.9533 27.813 31.2622 28.2426C31.9548 29.2048 32.6282 30.1789 33.2968 31.1582C33.4151 31.3301 33.4916 31.5389 33.5541 31.7398C33.7538 32.3801 33.6392 32.5142 32.9903 32.3502C31.3184 31.9295 29.6499 31.4918 27.9015 31.8286C27.3399 31.9376 26.7734 32.0425 26.2299 32.2133C25.4683 32.4531 24.7125 32.4691 23.9811 32.1913C23.4349 31.9855 22.6595 31.8756 23.0011 30.9415C23.0145 30.9063 22.7909 30.7845 22.6777 30.7026C22.6655 30.5907 22.6744 30.5016 22.8239 30.5847Z" fill="#FEDF65"/>
<path fill-rule="evenodd" clip-rule="evenodd" d="M32.4683 22.6674C32.388 23.7505 32.3002 24.8356 32.2301 25.9196C32.185 26.6162 31.7773 26.9239 31.1214 26.9798C30.4205 27.0418 30.1328 26.6382 30.0329 26.0228C29.748 24.268 29.4649 22.5136 29.812 20.7329C29.9222 20.1674 30.1461 19.65 30.4326 19.1563C30.6083 18.8537 30.8465 18.6297 31.237 18.6747C31.5915 18.7147 31.7662 18.9546 31.8909 19.2572C32.342 20.3514 32.4767 21.4944 32.4683 22.6674Z" fill="white"/>
<path fill-rule="evenodd" clip-rule="evenodd" d="M24.5758 32.8358C25.7723 32.9567 26.8868 32.5131 28.0403 32.3412C29.0235 32.1933 29.985 32.2373 31.0377 32.5421C30.344 33.2226 29.721 33.866 28.9671 34.3496C28.3941 34.7193 27.7778 34.6054 27.1908 34.3095C26.2788 33.848 25.4222 33.2725 24.4272 32.9806C24.3945 32.8499 24.4255 32.7819 24.5758 32.8358Z" fill="#FDDE63"/>
<path fill-rule="evenodd" clip-rule="evenodd" d="M22.8239 30.585C22.7752 30.625 22.7265 30.6648 22.6777 30.7028C22.0167 30.6778 21.371 30.6888 20.8667 31.5762C21.8279 30.8748 22.3775 31.1825 22.8348 31.9117C22.9665 32.1217 23.2133 32.2595 23.4072 32.4314C23.4695 32.4954 23.4684 32.5593 23.4039 32.6213C22.345 32.3215 21.2907 32.0039 20.281 31.5682C19.5339 31.2464 19.2973 30.8048 19.5506 30.3382C19.9131 29.6707 20.7452 29.4438 21.3795 29.8135C21.8503 30.0894 22.3414 30.3312 22.8236 30.585H22.8239Z" fill="#FDDE62"/>
<path fill-rule="evenodd" clip-rule="evenodd" d="M34.2959 28.2167C34.0945 28.7223 33.7912 29.2019 33.4076 29.6257C33.3033 29.7415 33.1903 29.6076 33.1273 29.5116C33.0041 29.3239 32.765 29.156 32.9799 28.8902C33.2347 28.5765 33.4936 28.2666 33.7514 27.9549C33.8299 27.8611 33.9208 27.7721 34.0516 27.849C34.1766 27.9231 34.2754 28.029 34.2959 28.2167Z" fill="#F9D95B"/>
<path fill-rule="evenodd" clip-rule="evenodd" d="M23.4042 32.6211C23.405 32.5571 23.4067 32.4942 23.4075 32.4312C23.7972 32.5661 24.1866 32.7011 24.5761 32.8359C24.5265 32.884 24.4771 32.9319 24.4275 32.9807C24.0676 32.9128 23.72 32.811 23.4044 32.6211H23.4042Z" fill="#B8971E"/>
<path fill-rule="evenodd" clip-rule="evenodd" d="M25.3296 24.8942C25.2935 25.0901 25.276 25.3789 25.1846 25.6447C24.8707 26.5559 24.0044 26.7318 23.3425 26.0304C22.7402 25.3949 22.5372 24.17 22.9017 23.3725C23.2925 22.5153 24.0978 22.3933 24.7248 23.1009C25.1561 23.5884 25.2762 24.1899 25.3296 24.8942Z" fill="#0E1012"/>
<path fill-rule="evenodd" clip-rule="evenodd" d="M31.8398 22.5645C31.8373 23.4249 31.4326 24.0462 30.9662 23.9924C30.5242 23.9443 30.1704 23.209 30.3056 22.5096C30.3981 22.034 30.4704 21.4005 31.1236 21.4413C31.8189 21.4853 31.7459 22.1588 31.8398 22.5645Z" fill="#0F1113"/>
<path fill-rule="evenodd" clip-rule="evenodd" d="M24.0994 23.8663C24.0905 24.1101 24.0378 24.3499 23.7148 24.3389C23.3516 24.3239 23.2431 24.0591 23.2311 23.7524C23.2208 23.4885 23.3325 23.2597 23.6252 23.2647C23.9875 23.2689 24.0816 23.5466 24.0994 23.8663Z" fill="#F9F9F8"/>
<path fill-rule="evenodd" clip-rule="evenodd" d="M31.1405 22.1087C31.1338 22.2575 31.0983 22.4044 30.9227 22.4174C30.7462 22.4274 30.6898 22.2955 30.6823 22.1397C30.6739 21.9758 30.7428 21.8639 30.9094 21.843C31.1049 21.8199 31.1432 21.9518 31.1405 22.1087Z" fill="#F2F1F0"/>
<path fill-rule="evenodd" clip-rule="evenodd" d="M-92.4204 15.5111L-87.6504 9.88765L-72.933 9.73888L-82.7618 19.5098L-73.1839 35.6306L-86.2694 35.7625L-90.6138 27.3073L-92.325 29.016L-92.277 35.8245L-103.961 35.9434L-104.207 1.17884L-92.5223 1.05993L-92.4204 15.5111ZM98.024 0.515467C99.9929 0.495456 102.007 1.54656 102.713 3.46105C102.867 3.88063 102.948 4.31917 102.951 4.76579C102.954 5.21051 102.88 5.65314 102.732 6.07272C102.551 6.58442 102.278 7.03792 101.937 7.42765C102.103 7.42186 102.27 7.41772 102.436 7.41665C103.219 7.40838 104.028 7.42765 104.842 7.48678C104.458 7.08406 104.149 6.60841 103.947 6.06091C103.793 5.64323 103.712 5.20257 103.709 4.75595C103.706 4.31238 103.78 3.87054 103.928 3.45005C104.607 1.52059 106.607 0.428404 108.575 0.408392C110.544 0.387554 112.558 1.43957 113.264 3.35514C113.418 3.77166 113.499 4.21233 113.502 4.65705C113.505 5.10367 113.431 5.54432 113.283 5.96481C112.803 7.32981 111.663 8.27407 110.341 8.71871C110.541 8.80669 110.739 8.89941 110.932 8.99839C113.09 10.1004 114.771 11.7343 115.917 13.8725C117.219 16.3024 117.615 19.2142 117.634 21.9419L117.65 24.234L106.753 24.3459L117.979 25.2631L116.997 27.0038C115.708 29.2898 113.991 31.3232 111.663 32.596C109.11 33.99 105.746 34.3276 102.888 34.3597C100.307 34.3846 97.3851 34.1318 95.0293 33.0026C92.9271 31.9955 91.3004 30.3879 90.074 28.4184C88.6893 26.1942 88.1074 23.6885 88.0889 21.0816C88.0625 17.3216 89.2019 13.9323 91.9078 11.2727C93.083 10.1176 94.4135 9.2663 95.8451 8.66273C94.7464 8.1851 93.8269 7.33774 93.3957 6.16773C93.2418 5.75121 93.1611 5.3094 93.158 4.86476C93.1546 4.41922 93.2293 3.97846 93.3773 3.5569C94.0563 1.62851 96.0555 0.535231 98.024 0.515467ZM-58.0716 26.0266L-46.8454 26.9458L-47.8267 28.6853C-49.1165 30.9703 -50.8333 33.0049 -53.1615 34.2758C-55.7148 35.6726 -59.0787 36.0102 -61.9361 36.0393C-64.5173 36.0663 -67.4392 35.8124 -69.795 34.6835C-71.8973 33.6762 -73.5237 32.0696 -74.7503 30.1001C-76.1351 27.877 -76.7168 25.37 -76.7353 22.7631C-76.7618 19.0023 -75.6224 15.614 -72.9166 12.9541C-70.0639 10.1505 -66.2965 9.13838 -62.388 9.09835C-59.5761 9.0704 -56.4287 9.38299 -53.8919 10.6789C-51.734 11.7821 -50.0526 13.4149 -48.9074 15.5551C-47.6057 17.9841 -47.2097 20.8948 -47.1906 23.6234L-47.1744 25.9167L-58.0716 26.0266ZM-64.7936 26.0953C-64.6582 26.5042 -64.4716 26.8877 -64.2131 27.1836C-63.5648 27.923 -62.7779 28.2406 -61.7963 28.2296C-61.1289 28.2222 -60.5075 28.0529 -59.9279 27.717C-59.4953 27.4654 -59.0551 26.9477 -58.7536 26.556L-58.3461 26.0285L-64.7936 26.0953ZM-59.0975 19.1962C-59.26 18.6105 -59.5053 18.045 -59.8794 17.6812C-60.4531 17.1227 -61.1692 16.9398 -61.9583 16.948C-62.977 16.959 -63.73 17.3476 -64.341 18.1628C-64.5665 18.4646 -64.7278 18.8493 -64.8434 19.254L-59.0975 19.1962ZM-34.8539 11.2586C-34.2656 10.757 -33.6346 10.3115 -32.9599 9.94968C-31.3518 9.08629 -29.5318 8.7627 -27.7249 8.74467C-25.1741 8.71871 -22.7843 9.41599 -20.9772 11.2865C-19.028 13.303 -18.5007 16.2506 -18.4815 18.9602L-18.3679 35.069L-29.895 35.187L-29.9944 21.0785C-29.9986 20.48 -30.0667 19.3049 -30.4959 18.8304C-30.8447 18.4447 -31.3246 18.3528 -31.8284 18.3567C-32.5105 18.3649 -33.0337 18.6047 -33.4636 19.1372C-34.0968 19.9234 -34.1655 21.7979 -34.1587 22.7493L-34.0708 35.23L-45.5604 35.3477L-45.7432 9.45998L-34.8675 9.35008L-34.8539 11.2586ZM75.4916 32.5771C75.0693 32.9348 74.6259 33.2525 74.1662 33.4994C72.6507 34.3158 70.9948 34.6835 69.281 34.7013C65.8256 34.7354 62.9297 33.4603 60.9229 30.6147C58.9402 27.8029 58.143 24.5178 58.119 21.1025C58.0943 17.6243 58.7794 14.0205 61.1587 11.3415C63.2669 8.96846 65.9662 7.78941 69.1284 7.75733C70.5972 7.74236 72.0446 7.96639 73.4104 8.5148C73.8477 8.69061 74.2667 8.89659 74.6671 9.1302L74.5982 -0.644618L86.1702 -0.762695L86.4155 34.001L75.5024 34.1118L75.4916 32.5771ZM74.8115 21.1104C74.8039 20.0674 74.6587 18.6774 73.938 17.8551C73.4038 17.2447 72.7759 16.9609 71.9641 16.9699C71.2724 16.9757 70.776 17.2777 70.3463 17.8131C69.6806 18.6425 69.5968 20.3552 69.6039 21.3603C69.6106 22.3835 69.7393 23.9001 70.4246 24.7255C70.879 25.2722 71.409 25.5728 72.1296 25.5658C72.9116 25.5592 73.501 25.2631 74.0023 24.6635C74.7182 23.8063 74.819 22.1696 74.8115 21.1104ZM100.031 24.4138C100.166 24.8225 100.353 25.2071 100.611 25.5009C101.259 26.2424 102.046 26.558 103.028 26.5481C103.695 26.5423 104.317 26.3703 104.896 26.0344C105.329 25.7848 105.769 25.2671 106.071 24.8754L106.478 24.3479L100.031 24.4138ZM105.727 17.5135C105.564 16.9288 105.319 16.3644 104.945 15.9998C104.371 15.4412 103.655 15.2584 102.866 15.2674C101.847 15.2773 101.094 15.6658 100.483 16.4822C100.258 16.7831 100.096 17.1678 99.9806 17.5733L105.727 17.5135ZM129.97 9.57599C130.559 9.07636 131.19 8.62974 131.864 8.26903C133.472 7.40564 135.292 7.08208 137.099 7.06405C139.65 7.03792 142.04 7.73535 143.847 9.60395C145.796 11.6224 146.324 14.5679 146.343 17.2777L146.456 33.3884L134.929 33.5064L134.83 19.3968C134.825 18.7994 134.758 17.6235 134.328 17.1487C133.98 16.7631 133.5 16.671 132.996 16.6761C132.314 16.6844 131.791 16.9218 131.361 17.4555C130.727 18.2409 130.659 20.1162 130.666 21.0664L130.754 33.5493L119.264 33.6662L119.081 7.77933L129.957 7.66943L129.97 9.57599ZM166.689 23.7344L177.915 24.6525L176.934 26.3923C175.644 28.6782 173.927 30.7127 171.599 31.9856C169.046 33.3794 165.682 33.7173 162.824 33.7471C160.243 33.7722 157.321 33.5203 154.965 32.3911C152.863 31.384 151.237 29.7775 150.01 27.8069C148.625 25.5838 148.043 23.077 148.025 20.471C147.999 16.7102 149.138 13.3208 151.844 10.6611C154.697 7.8573 158.464 6.84426 162.372 6.80622C165.185 6.77835 168.332 7.092 170.868 8.38688C173.026 9.49008 174.707 11.1227 175.853 13.261C177.155 15.6909 177.55 18.6027 177.57 21.3304L177.586 23.6225L166.689 23.7344ZM159.967 23.8024C160.102 24.212 160.289 24.5957 160.547 24.8904C161.196 25.6309 161.983 25.9465 162.964 25.9367C163.631 25.9292 164.253 25.7586 164.832 25.423C165.265 25.1732 165.705 24.6545 166.007 24.264L166.414 23.7373L159.967 23.8024ZM165.663 16.9029C165.5 16.3165 165.255 15.7529 164.881 15.3892C164.307 14.8298 163.591 14.6478 162.802 14.6559C161.783 14.6658 161.031 15.0555 160.419 15.8707C160.194 16.1705 160.033 16.5563 159.917 16.9618L165.663 16.9029ZM190.027 8.08423C190.176 7.94729 190.329 7.81934 190.488 7.70151C191.634 6.85019 192.987 6.49455 194.399 6.47942C196.122 6.46048 197.804 7.02998 199.321 7.80348L200.381 8.34396L196.7 17.0099L195.532 16.5303C194.989 16.3075 194.119 15.9868 193.523 15.9916C192.787 15.999 192.278 16.2765 191.871 16.8899C190.826 18.4705 190.74 22.0147 190.753 23.8362L190.817 32.9347L179.29 33.0527L179.107 7.16782L190.02 7.05595L190.028 8.08423H190.027Z" fill="#151616" stroke="#313130" stroke-width="0.216"/>
<path fill-rule="evenodd" clip-rule="evenodd" d="M-102.92 2.44561L-93.7914 2.35267L-93.6744 18.9621L-87.0568 11.1626L-76.0639 11.0505L-84.3707 19.3087L-75.4203 34.3715L-85.4919 34.4754L-90.2755 25.165L-93.607 28.4913L-93.5641 34.5573L-102.692 34.6504L-102.92 2.44561ZM-48.4615 24.6484L-66.3585 24.8313C-66.1912 26.2682 -65.7943 27.3313 -65.1753 28.0288C-64.307 29.0319 -63.1727 29.5234 -61.7872 29.5074C-60.9112 29.4991 -60.074 29.2737 -59.2909 28.823C-58.8063 28.5414 -58.293 28.0486 -57.7436 27.3381L-48.9393 28.0576C-50.2706 30.4187 -51.8764 32.1154 -53.7712 33.1524C-55.6661 34.1857 -58.3882 34.7231 -61.945 34.7592C-65.0303 34.791 -67.4595 34.3815 -69.2403 33.5291C-71.0138 32.6789 -72.4913 31.3041 -73.6652 29.4206C-74.8393 27.5351 -75.4392 25.3148 -75.4571 22.7511C-75.4829 19.106 -74.3355 16.1394 -72.0227 13.8661C-69.7023 11.5851 -66.4902 10.419 -62.3792 10.3792C-59.0469 10.3431 -56.4074 10.8267 -54.4757 11.82C-52.5367 12.8052 -51.0513 14.2599 -50.0341 16.1614C-49.01 18.0708 -48.4904 20.5608 -48.4689 23.6362L-48.4613 24.6484H-48.4615ZM-57.5675 20.4599C-57.7594 18.7293 -58.2325 17.4973 -58.9867 16.763C-59.7482 16.0205 -60.7393 15.6558 -61.9674 15.6668C-63.3902 15.6828 -64.5169 16.2642 -65.3625 17.3973C-65.8968 18.1077 -66.2337 19.154 -66.3663 20.5498L-57.5675 20.4599ZM-44.4559 10.7269L-36.1366 10.643L-36.1099 14.4368C-34.8777 12.8731 -33.6273 11.7569 -32.3591 11.0766C-31.091 10.3951 -29.5432 10.0434 -27.7161 10.0244C-25.2449 9.99939 -23.3076 10.7219 -21.8971 12.1777C-20.4939 13.6325 -19.7813 15.8976 -19.7595 18.972L-19.655 33.8039L-28.6259 33.8938L-28.7165 21.0643C-28.7267 19.6035 -29.0038 18.5704 -29.5472 17.9688C-30.0981 17.3604 -30.8565 17.0676 -31.8376 17.0778C-32.9158 17.0896 -33.7965 17.5103 -34.4571 18.3346C-35.1253 19.159 -35.4519 20.6387 -35.4369 22.7609L-35.3579 33.964L-44.2913 34.0546L-44.4559 10.7269ZM84.9011 0.530273L85.1282 32.7348L76.7716 32.8207L76.7471 29.3715C75.5817 30.8445 74.5254 31.8454 73.563 32.3721C72.2797 33.0526 70.8518 33.4052 69.2718 33.4223C66.0969 33.4533 63.6621 32.2712 61.9678 29.8751C60.2809 27.4771 59.4215 24.5455 59.3969 21.0883C59.3698 17.2195 60.2699 14.2559 62.1127 12.1897C63.9477 10.1175 66.2917 9.06522 69.1373 9.03619C70.5302 9.02213 71.7897 9.2501 72.9314 9.70375C74.0655 10.1634 75.0738 10.8507 75.964 11.7789L75.8852 0.622157L84.9011 0.530273ZM76.0896 21.0983C76.0768 19.2619 75.6851 17.9009 74.9 17.0087C74.1224 16.1174 73.1382 15.6767 71.9552 15.6888C70.9144 15.7008 70.0487 16.1433 69.3507 17.0118C68.6531 17.8831 68.3114 19.3327 68.3257 21.3731C68.3392 23.2786 68.7158 24.6695 69.4411 25.5456C70.1735 26.4229 71.0753 26.8565 72.1387 26.8455C73.2843 26.8337 74.2323 26.382 74.9822 25.4828C75.7398 24.5755 76.1039 23.1157 76.0896 21.0983ZM116.363 22.9689L98.4656 23.1487C98.633 24.5875 99.0301 25.6485 99.649 26.3482C100.517 27.3511 101.652 27.8417 103.037 27.8268C103.913 27.8185 104.75 27.5932 105.533 27.1423C106.018 26.8597 106.531 26.3659 107.081 25.6567L115.885 26.3769C114.554 28.7361 112.948 30.4336 111.053 31.4718C109.158 32.5031 106.436 33.0416 102.879 33.0786C99.7943 33.1104 97.3649 32.7009 95.584 31.8477C93.8105 30.9964 92.333 29.6234 91.1592 27.7389C89.985 25.8534 89.3852 23.6323 89.3671 21.0685C89.3413 17.4255 90.4888 14.4579 92.8017 12.1847C95.122 9.90355 98.3342 8.7384 102.445 8.69664C105.777 8.66257 108.417 9.14607 110.349 10.1394C112.288 11.1235 113.773 12.5772 114.79 14.4799C115.814 16.3882 116.334 18.8801 116.356 21.9536L116.362 22.9689H116.363ZM107.257 18.7783C107.065 17.0487 106.592 15.8147 105.838 15.0812C105.076 14.339 104.085 13.9741 102.857 13.9871C101.434 14.0011 100.307 14.5828 99.4617 15.7147C98.9275 16.4262 98.5903 17.4734 98.4578 18.8682L107.257 18.7783ZM120.368 9.04636L128.688 8.96233L128.714 12.7553C129.947 11.1905 131.197 10.0755 132.465 9.39605C133.734 8.71442 135.281 8.36273 137.108 8.3438C139.579 8.31792 141.517 9.04016 142.927 10.497C144.331 11.9519 145.043 14.2159 145.065 17.2905L145.169 32.1213L136.198 32.2132L136.108 19.3837C136.098 17.9209 135.821 16.8898 135.277 16.2882C134.726 15.6789 133.968 15.387 132.987 15.3971C131.908 15.407 131.028 15.8286 130.367 16.652C129.699 17.4773 129.372 18.9582 129.387 21.0795L129.466 32.2822L120.533 32.3732L120.368 9.04636ZM176.299 22.3563L158.402 22.5381C158.569 23.9769 158.966 25.0371 159.585 25.7356C160.453 26.7396 161.588 27.2293 162.973 27.2164C163.849 27.2074 164.686 26.9816 165.469 26.5299C165.954 26.2482 166.467 25.7556 167.017 25.0452L175.821 25.7646C174.49 28.1254 172.884 29.8233 170.989 30.8614C169.094 31.8925 166.372 32.429 162.815 32.467C159.73 32.4981 157.301 32.0883 155.52 31.2362C153.747 30.3849 152.269 29.0128 151.095 27.1274C149.921 25.243 149.321 23.0208 149.303 20.457C149.277 16.8129 150.425 13.8464 152.738 11.5741C155.058 9.29203 158.27 8.12689 162.381 8.08488C165.713 8.05106 168.353 8.53465 170.285 9.5268C172.224 10.5111 173.709 11.9669 174.726 13.8684C175.751 15.7778 176.27 18.2697 176.292 21.3441L176.298 22.3563H176.299ZM167.193 18.1668C167.001 16.4361 166.528 15.2041 165.774 14.4697C165.012 13.7264 164.021 13.3626 162.793 13.3767C161.37 13.3888 160.243 13.9721 159.398 15.1043C158.864 15.8147 158.527 16.8608 158.394 18.2568L167.193 18.1668ZM180.394 8.43485L188.751 8.34892L188.778 12.1657C189.575 10.508 190.398 9.35885 191.248 8.72849C192.097 8.09697 193.151 7.77123 194.409 7.75717C195.726 7.74526 197.167 8.14294 198.738 8.94431L196.02 15.3461C194.968 14.9144 194.128 14.7056 193.514 14.7115C192.346 14.7236 191.443 15.2212 190.806 16.1864C189.895 17.5602 189.448 20.1152 189.475 23.8481L189.53 31.6697L180.559 31.7597L180.394 8.43485Z" fill="#BB2025"/>
</g>
<defs>
<clipPath id="clip0_733_21870">
<rect width="41" height="43" fill="white"/>
</clipPath>
</defs>
</svg>
